<?xml version="1.0" encoding="UTF-8" standalone="no"?>
<!DOCTYPE svg PUBLIC "-//W3C//DTD SVG 1.1//EN"
 "http://www.w3.org/Graphics/SVG/1.1/DTD/svg11.dtd">
<!-- Generated by graphviz version 2.26.3 (20100126.1600)
 -->
<!-- Title: Positively selected genes pipeline Pages: 1 -->
<svg width="857pt" height="1520pt"
 viewBox="0.00 0.00 857.00 1520.00" xmlns="http://www.w3.org/2000/svg" xmlns:xlink="http://www.w3.org/1999/xlink">
<g id="graph1" class="graph" transform="scale(1 1) rotate(0) translate(4 1516)">
<title>Positively selected genes pipeline</title>
<polygon fill="white" stroke="white" points="-4,5 -4,-1516 854,-1516 854,5 -4,5"/>
<!-- 18:output1 -->
<g id="node1" class="node"><title>18:output1</title>
<ellipse fill="none" stroke="black" cx="206" cy="-731" rx="67.1751" ry="18.3848"/>
<text text-anchor="middle" x="206" y="-727.4" font-family="Times Roman,serif" font-size="14.00">18:output1</text>
</g>
<!-- 21:out_file1 -->
<g id="node3" class="node"><title>21:out_file1</title>
<ellipse fill="none" stroke="black" cx="206" cy="-603" rx="70.0036" ry="18.3848"/>
<text text-anchor="middle" x="206" y="-599.4" font-family="Times Roman,serif" font-size="14.00">21:out_file1</text>
</g>
<!-- 18:output1&#45;&gt;21:out_file1 -->
<g id="edge2" class="edge"><title>18:output1&#45;&gt;21:out_file1</title>
<path fill="none" stroke="black" d="M206,-712.388C206,-691.248 206,-656.497 206,-631.841"/>
<polygon fill="black" stroke="black" points="209.5,-631.635 206,-621.635 202.5,-631.635 209.5,-631.635"/>
<text text-anchor="middle" x="224" y="-663.4" font-family="Times Roman,serif" font-size="14.00" fill="blue">Filter</text>
</g>
<!-- 24:out_file1 -->
<g id="node62" class="node"><title>24:out_file1</title>
<ellipse fill="none" stroke="black" cx="206" cy="-491" rx="70.0036" ry="18.3848"/>
<text text-anchor="middle" x="206" y="-487.4" font-family="Times Roman,serif" font-size="14.00">24:out_file1</text>
</g>
<!-- 21:out_file1&#45;&gt;24:out_file1 -->
<g id="edge74" class="edge"><title>21:out_file1&#45;&gt;24:out_file1</title>
<path fill="none" stroke="black" d="M206,-584.254C206,-566.729 206,-540.296 206,-520.041"/>
<polygon fill="black" stroke="black" points="209.5,-519.807 206,-509.807 202.5,-519.807 209.5,-519.807"/>
<text text-anchor="middle" x="218.5" y="-543.4" font-family="Times Roman,serif" font-size="14.00" fill="blue">Cut</text>
</g>
<!-- 13:out_file1 -->
<g id="node4" class="node"><title>13:out_file1</title>
<ellipse fill="none" stroke="black" cx="305" cy="-995" rx="70.0036" ry="18.3848"/>
<text text-anchor="middle" x="305" y="-991.4" font-family="Times Roman,serif" font-size="14.00">13:out_file1</text>
</g>
<!-- Strain 2\nprotein FASTA -->
<g id="node6" class="node"><title>Strain 2\nprotein FASTA</title>
<ellipse fill="none" stroke="black" cx="305" cy="-855" rx="80.1095" ry="31.1127"/>
<text text-anchor="middle" x="305" y="-860.4" font-family="Times Roman,serif" font-size="14.00">Strain 2</text>
<text text-anchor="middle" x="305" y="-842.4" font-family="Times Roman,serif" font-size="14.00">protein FASTA</text>
</g>
<!-- 13:out_file1&#45;&gt;Strain 2\nprotein FASTA -->
<g id="edge4" class="edge"><title>13:out_file1&#45;&gt;Strain 2\nprotein FASTA</title>
<path fill="none" stroke="black" d="M305,-976.409C305,-956.053 305,-922.771 305,-896.197"/>
<polygon fill="black" stroke="black" points="308.5,-896.015 305,-886.015 301.5,-896.015 308.5,-896.015"/>
<text text-anchor="middle" x="350" y="-927.4" font-family="Times Roman,serif" font-size="14.00" fill="blue">Manipulation</text>
</g>
<!-- Strain 2\nprotein FASTA&#45;&gt;18:output1 -->
<g id="edge28" class="edge"><title>Strain 2\nprotein FASTA&#45;&gt;18:output1</title>
<path fill="none" stroke="black" d="M236.891,-838.44C220.813,-831.184 205.578,-820.808 196,-806 187.131,-792.289 189.233,-774.209 193.743,-759.236"/>
<polygon fill="black" stroke="black" points="197.165,-760.053 197.145,-749.458 190.553,-757.753 197.165,-760.053"/>
<text text-anchor="middle" x="244.5" y="-792.4" font-family="Times Roman,serif" font-size="14.00" fill="blue">NCBI BLAST+</text>
<text text-anchor="middle" x="244.5" y="-774.4" font-family="Times Roman,serif" font-size="14.00" fill="blue">blastp</text>
</g>
<!-- 20:output1 -->
<g id="node10" class="node"><title>20:output1</title>
<ellipse fill="none" stroke="black" cx="371" cy="-731" rx="67.1751" ry="18.3848"/>
<text text-anchor="middle" x="371" y="-727.4" font-family="Times Roman,serif" font-size="14.00">20:output1</text>
</g>
<!-- Strain 2\nprotein FASTA&#45;&gt;20:output1 -->
<g id="edge22" class="edge"><title>Strain 2\nprotein FASTA&#45;&gt;20:output1</title>
<path fill="none" stroke="black" d="M298.139,-823.994C295.936,-806.409 296.186,-784.659 306,-768 309.852,-761.462 315.332,-755.981 321.497,-751.415"/>
<polygon fill="black" stroke="black" points="323.755,-754.122 330.238,-745.743 319.944,-748.25 323.755,-754.122"/>
<text text-anchor="middle" x="354.5" y="-792.4" font-family="Times Roman,serif" font-size="14.00" fill="blue">NCBI BLAST+</text>
<text text-anchor="middle" x="354.5" y="-774.4" font-family="Times Roman,serif" font-size="14.00" fill="blue">blastp</text>
</g>
<!-- 19:out_file1 -->
<g id="node51" class="node"><title>19:out_file1</title>
<ellipse fill="none" stroke="black" cx="671" cy="-731" rx="70.0036" ry="18.3848"/>
<text text-anchor="middle" x="671" y="-727.4" font-family="Times Roman,serif" font-size="14.00">19:out_file1</text>
</g>
<!-- Strain 2\nprotein FASTA&#45;&gt;19:out_file1 -->
<g id="edge52" class="edge"><title>Strain 2\nprotein FASTA&#45;&gt;19:out_file1</title>
<path fill="none" stroke="black" d="M377.666,-841.863C436.469,-830.708 511.373,-815.101 523,-806 537.869,-794.362 527.476,-780.066 542,-768 552.255,-759.48 579.122,-751.183 605.699,-744.613"/>
<polygon fill="black" stroke="black" points="606.54,-748.011 615.446,-742.273 604.906,-741.204 606.54,-748.011"/>
<text text-anchor="middle" x="586" y="-792.4" font-family="Times Roman,serif" font-size="14.00" fill="blue">Concatenate</text>
<text text-anchor="middle" x="586" y="-774.4" font-family="Times Roman,serif" font-size="14.00" fill="blue">datasets</text>
</g>
<!-- 23:out_file1 -->
<g id="node7" class="node"><title>23:out_file1</title>
<ellipse fill="none" stroke="black" cx="371" cy="-603" rx="70.0036" ry="18.3848"/>
<text text-anchor="middle" x="371" y="-599.4" font-family="Times Roman,serif" font-size="14.00">23:out_file1</text>
</g>
<!-- 25:out_file1 -->
<g id="node9" class="node"><title>25:out_file1</title>
<ellipse fill="none" stroke="black" cx="371" cy="-435" rx="70.0036" ry="18.3848"/>
<text text-anchor="middle" x="371" y="-431.4" font-family="Times Roman,serif" font-size="14.00">25:out_file1</text>
</g>
<!-- 23:out_file1&#45;&gt;25:out_file1 -->
<g id="edge6" class="edge"><title>23:out_file1&#45;&gt;25:out_file1</title>
<path fill="none" stroke="black" d="M371,-584.379C371,-555.24 371,-498.63 371,-464.083"/>
<polygon fill="black" stroke="black" points="374.5,-463.704 371,-453.704 367.5,-463.704 374.5,-463.704"/>
<text text-anchor="middle" x="383.5" y="-543.4" font-family="Times Roman,serif" font-size="14.00" fill="blue">Cut</text>
</g>
<!-- 27:out_file1 -->
<g id="node18" class="node"><title>27:out_file1</title>
<ellipse fill="none" stroke="black" cx="206" cy="-269" rx="70.0036" ry="18.3848"/>
<text text-anchor="middle" x="206" y="-265.4" font-family="Times Roman,serif" font-size="14.00">27:out_file1</text>
</g>
<!-- 25:out_file1&#45;&gt;27:out_file1 -->
<g id="edge18" class="edge"><title>25:out_file1&#45;&gt;27:out_file1</title>
<path fill="none" stroke="black" d="M364.898,-416.171C355.026,-388.463 333.044,-336.681 298,-306 288.495,-297.678 276.879,-291.087 265.145,-285.918"/>
<polygon fill="black" stroke="black" points="266.327,-282.62 255.746,-282.072 263.675,-289.099 266.327,-282.62"/>
<text text-anchor="middle" x="401" y="-384.4" font-family="Times Roman,serif" font-size="14.00" fill="blue">Concatenate</text>
<text text-anchor="middle" x="401" y="-366.4" font-family="Times Roman,serif" font-size="14.00" fill="blue">datasets</text>
</g>
<!-- 20:output1&#45;&gt;23:out_file1 -->
<g id="edge8" class="edge"><title>20:output1&#45;&gt;23:out_file1</title>
<path fill="none" stroke="black" d="M371,-712.388C371,-691.248 371,-656.497 371,-631.841"/>
<polygon fill="black" stroke="black" points="374.5,-631.635 371,-621.635 367.5,-631.635 374.5,-631.635"/>
<text text-anchor="middle" x="389" y="-663.4" font-family="Times Roman,serif" font-size="14.00" fill="blue">Filter</text>
</g>
<!-- Strain 2 gff -->
<g id="node12" class="node"><title>Strain 2 gff</title>
<ellipse fill="none" stroke="black" cx="117" cy="-1377" rx="67.1751" ry="18.3848"/>
<text text-anchor="middle" x="117" y="-1373.4" font-family="Times Roman,serif" font-size="14.00">Strain 2 gff</text>
</g>
<!-- Strain 2 genes -->
<g id="node14" class="node"><title>Strain 2 genes</title>
<ellipse fill="none" stroke="black" cx="118" cy="-1265" rx="82.2301" ry="18.3848"/>
<text text-anchor="middle" x="118" y="-1261.4" font-family="Times Roman,serif" font-size="14.00">Strain 2 genes</text>
</g>
<!-- Strain 2 gff&#45;&gt;Strain 2 genes -->
<g id="edge10" class="edge"><title>Strain 2 gff&#45;&gt;Strain 2 genes</title>
<path fill="none" stroke="black" d="M117.167,-1358.25C117.324,-1340.73 117.56,-1314.3 117.741,-1294.04"/>
<polygon fill="black" stroke="black" points="121.243,-1293.84 117.832,-1283.81 114.243,-1293.78 121.243,-1293.84"/>
<text text-anchor="middle" x="147" y="-1326.4" font-family="Times Roman,serif" font-size="14.00" fill="blue">Extract</text>
<text text-anchor="middle" x="147" y="-1308.4" font-family="Times Roman,serif" font-size="14.00" fill="blue">features</text>
</g>
<!-- Strain 2\nnucleotide\nFASTA -->
<g id="node45" class="node"><title>Strain 2\nnucleotide\nFASTA</title>
<ellipse fill="none" stroke="black" cx="175" cy="-1130" rx="62.2254" ry="43.8406"/>
<text text-anchor="middle" x="175" y="-1144.4" font-family="Times Roman,serif" font-size="14.00">Strain 2</text>
<text text-anchor="middle" x="175" y="-1126.4" font-family="Times Roman,serif" font-size="14.00">nucleotide</text>
<text text-anchor="middle" x="175" y="-1108.4" font-family="Times Roman,serif" font-size="14.00">FASTA</text>
</g>
<!-- Strain 2 genes&#45;&gt;Strain 2\nnucleotide\nFASTA -->
<g id="edge42" class="edge"><title>Strain 2 genes&#45;&gt;Strain 2\nnucleotide\nFASTA</title>
<path fill="none" stroke="black" d="M119.058,-1246.37C120.444,-1231.23 123.639,-1209.57 131,-1192 133.136,-1186.9 135.75,-1181.81 138.629,-1176.87"/>
<polygon fill="black" stroke="black" points="141.744,-1178.49 144.051,-1168.15 135.799,-1174.79 141.744,-1178.49"/>
<text text-anchor="middle" x="188.5" y="-1215.4" font-family="Times Roman,serif" font-size="14.00" fill="blue">Extract Genomic</text>
<text text-anchor="middle" x="188.5" y="-1197.4" font-family="Times Roman,serif" font-size="14.00" fill="blue">DNA</text>
</g>
<!-- 14:out_file1 -->
<g id="node15" class="node"><title>14:out_file1</title>
<ellipse fill="none" stroke="black" cx="147" cy="-995" rx="70.0036" ry="18.3848"/>
<text text-anchor="middle" x="147" y="-991.4" font-family="Times Roman,serif" font-size="14.00">14:out_file1</text>
</g>
<!-- Nucleotide DB -->
<g id="node17" class="node"><title>Nucleotide DB</title>
<ellipse fill="none" stroke="black" cx="81" cy="-787" rx="80.8184" ry="18.3848"/>
<text text-anchor="middle" x="81" y="-783.4" font-family="Times Roman,serif" font-size="14.00">Nucleotide DB</text>
</g>
<!-- 14:out_file1&#45;&gt;Nucleotide DB -->
<g id="edge12" class="edge"><title>14:out_file1&#45;&gt;Nucleotide DB</title>
<path fill="none" stroke="black" d="M141.143,-976.541C129.577,-940.091 103.739,-858.662 89.997,-815.354"/>
<polygon fill="black" stroke="black" points="93.2994,-814.189 86.9388,-805.716 86.6273,-816.306 93.2994,-814.189"/>
<text text-anchor="middle" x="186" y="-945.4" font-family="Times Roman,serif" font-size="14.00" fill="blue">Index a FASTA</text>
<text text-anchor="middle" x="186" y="-927.4" font-family="Times Roman,serif" font-size="14.00" fill="blue">file (Bio.SeqIO</text>
<text text-anchor="middle" x="186" y="-909.4" font-family="Times Roman,serif" font-size="14.00" fill="blue">.index_db)</text>
</g>
<!-- Positively\nselected genes -->
<g id="node37" class="node"><title>Positively\nselected genes</title>
<ellipse fill="none" stroke="black" cx="384" cy="-31" rx="82.939" ry="31.1127"/>
<text text-anchor="middle" x="384" y="-36.4" font-family="Times Roman,serif" font-size="14.00">Positively</text>
<text text-anchor="middle" x="384" y="-18.4" font-family="Times Roman,serif" font-size="14.00">selected genes</text>
</g>
<!-- Nucleotide DB&#45;&gt;Positively\nselected genes -->
<g id="edge34" class="edge"><title>Nucleotide DB&#45;&gt;Positively\nselected genes</title>
<path fill="none" stroke="black" d="M81,-768.293C81,-744.686 81,-702.833 81,-667 81,-667 81,-667 81,-165 81,-116.282 213.675,-73.3643 303.438,-49.903"/>
<polygon fill="black" stroke="black" points="304.534,-53.2348 313.342,-47.3472 302.785,-46.4568 304.534,-53.2348"/>
<text text-anchor="middle" x="132" y="-440.4" font-family="Times Roman,serif" font-size="14.00" fill="blue">Find positive</text>
<text text-anchor="middle" x="132" y="-422.4" font-family="Times Roman,serif" font-size="14.00" fill="blue">selected genes</text>
</g>
<!-- Ortholog pairs -->
<g id="node20" class="node"><title>Ortholog pairs</title>
<ellipse fill="none" stroke="black" cx="198" cy="-165" rx="80.8184" ry="18.3848"/>
<text text-anchor="middle" x="198" y="-161.4" font-family="Times Roman,serif" font-size="14.00">Ortholog pairs</text>
</g>
<!-- 27:out_file1&#45;&gt;Ortholog pairs -->
<g id="edge14" class="edge"><title>27:out_file1&#45;&gt;Ortholog pairs</title>
<path fill="none" stroke="black" d="M204.57,-250.407C203.36,-234.68 201.606,-211.884 200.215,-193.798"/>
<polygon fill="black" stroke="black" points="203.702,-193.485 199.445,-183.783 196.722,-194.022 203.702,-193.485"/>
<text text-anchor="middle" x="243" y="-219.4" font-family="Times Roman,serif" font-size="14.00" fill="blue">unique_line</text>
</g>
<!-- Ortholog pairs&#45;&gt;Positively\nselected genes -->
<g id="edge38" class="edge"><title>Ortholog pairs&#45;&gt;Positively\nselected genes</title>
<path fill="none" stroke="black" d="M211.938,-146.451C226.711,-127.775 251.529,-99.0725 278,-80 289.761,-71.5262 303.221,-63.9635 316.514,-57.4639"/>
<polygon fill="black" stroke="black" points="318.123,-60.5748 325.667,-53.136 315.13,-54.2466 318.123,-60.5748"/>
<text text-anchor="middle" x="329" y="-103.4" font-family="Times Roman,serif" font-size="14.00" fill="blue">Find positive</text>
<text text-anchor="middle" x="329" y="-85.4" font-family="Times Roman,serif" font-size="14.00" fill="blue">selected genes</text>
</g>
<!-- 26:outfile -->
<g id="node21" class="node"><title>26:outfile</title>
<ellipse fill="none" stroke="black" cx="206" cy="-379" rx="58.1882" ry="18.3848"/>
<text text-anchor="middle" x="206" y="-375.4" font-family="Times Roman,serif" font-size="14.00">26:outfile</text>
</g>
<!-- 26:outfile&#45;&gt;27:out_file1 -->
<g id="edge16" class="edge"><title>26:outfile&#45;&gt;27:out_file1</title>
<path fill="none" stroke="black" d="M206,-360.34C206,-343.194 206,-317.519 206,-297.753"/>
<polygon fill="black" stroke="black" points="209.5,-297.752 206,-287.752 202.5,-297.752 209.5,-297.752"/>
<text text-anchor="middle" x="250" y="-329.4" font-family="Times Roman,serif" font-size="14.00" fill="blue">Concatenate</text>
<text text-anchor="middle" x="250" y="-311.4" font-family="Times Roman,serif" font-size="14.00" fill="blue">datasets</text>
</g>
<!-- Strain 1\nprotein FASTA -->
<g id="node24" class="node"><title>Strain 1\nprotein FASTA</title>
<ellipse fill="none" stroke="black" cx="569" cy="-855" rx="80.1095" ry="31.1127"/>
<text text-anchor="middle" x="569" y="-860.4" font-family="Times Roman,serif" font-size="14.00">Strain 1</text>
<text text-anchor="middle" x="569" y="-842.4" font-family="Times Roman,serif" font-size="14.00">protein FASTA</text>
</g>
<!-- Strain 1\nprotein FASTA&#45;&gt;18:output1 -->
<g id="edge26" class="edge"><title>Strain 1\nprotein FASTA&#45;&gt;18:output1</title>
<path fill="none" stroke="black" d="M497.544,-841.045C472.987,-833.657 446.536,-822.55 426,-806 410.629,-793.613 419.34,-779.079 403,-768 362.723,-740.691 342.807,-759.082 295,-750 286.429,-748.372 277.415,-746.562 268.547,-744.725"/>
<polygon fill="black" stroke="black" points="269.134,-741.272 258.629,-742.647 267.699,-748.123 269.134,-741.272"/>
<text text-anchor="middle" x="474.5" y="-792.4" font-family="Times Roman,serif" font-size="14.00" fill="blue">NCBI BLAST+</text>
<text text-anchor="middle" x="474.5" y="-774.4" font-family="Times Roman,serif" font-size="14.00" fill="blue">blastp</text>
</g>
<!-- Strain 1\nprotein FASTA&#45;&gt;20:output1 -->
<g id="edge20" class="edge"><title>Strain 1\nprotein FASTA&#45;&gt;20:output1</title>
<path fill="none" stroke="black" d="M614.761,-829.285C622.531,-822.748 629.524,-814.98 634,-806 641.534,-790.885 645.079,-780.747 634,-768 621.74,-753.895 519.528,-742.816 446.214,-736.587"/>
<polygon fill="black" stroke="black" points="446.329,-733.085 436.073,-735.74 445.747,-740.06 446.329,-733.085"/>
<text text-anchor="middle" x="689.5" y="-792.4" font-family="Times Roman,serif" font-size="14.00" fill="blue">NCBI BLAST+</text>
<text text-anchor="middle" x="689.5" y="-774.4" font-family="Times Roman,serif" font-size="14.00" fill="blue">blastp</text>
</g>
<!-- Strain 1\nprotein FASTA&#45;&gt;19:out_file1 -->
<g id="edge50" class="edge"><title>Strain 1\nprotein FASTA&#45;&gt;19:out_file1</title>
<path fill="none" stroke="black" d="M644.752,-844.419C689.623,-836.428 740.322,-823.773 754,-806 764.301,-792.616 763.195,-782.166 754,-768 748.645,-759.75 740.976,-753.324 732.437,-748.322"/>
<polygon fill="black" stroke="black" points="733.777,-745.076 723.284,-743.609 730.573,-751.299 733.777,-745.076"/>
<text text-anchor="middle" x="805" y="-792.4" font-family="Times Roman,serif" font-size="14.00" fill="blue">Concatenate</text>
<text text-anchor="middle" x="805" y="-774.4" font-family="Times Roman,serif" font-size="14.00" fill="blue">datasets</text>
</g>
<!-- Strain 1\nGenbank file -->
<g id="node27" class="node"><title>Strain 1\nGenbank file</title>
<ellipse fill="none" stroke="black" cx="462" cy="-1481" rx="73.0388" ry="31.1127"/>
<text text-anchor="middle" x="462" y="-1486.4" font-family="Times Roman,serif" font-size="14.00">Strain 1</text>
<text text-anchor="middle" x="462" y="-1468.4" font-family="Times Roman,serif" font-size="14.00">Genbank file</text>
</g>
<!-- 5:out_file1 -->
<g id="node29" class="node"><title>5:out_file1</title>
<ellipse fill="none" stroke="black" cx="423" cy="-1321" rx="63.1385" ry="18.3848"/>
<text text-anchor="middle" x="423" y="-1317.4" font-family="Times Roman,serif" font-size="14.00">5:out_file1</text>
</g>
<!-- Strain 1\nGenbank file&#45;&gt;5:out_file1 -->
<g id="edge24" class="edge"><title>Strain 1\nGenbank file&#45;&gt;5:out_file1</title>
<path fill="none" stroke="black" d="M454.48,-1450.15C447.415,-1421.16 436.922,-1378.12 430.023,-1349.81"/>
<polygon fill="black" stroke="black" points="433.338,-1348.63 427.569,-1339.75 426.537,-1350.29 433.338,-1348.63"/>
<text text-anchor="middle" x="471" y="-1419.4" font-family="Times Roman,serif" font-size="14.00" fill="blue">seqret</text>
</g>
<!-- Strain 1 gff -->
<g id="node54" class="node"><title>Strain 1 gff</title>
<ellipse fill="none" stroke="black" cx="578" cy="-1377" rx="67.1751" ry="18.3848"/>
<text text-anchor="middle" x="578" y="-1373.4" font-family="Times Roman,serif" font-size="14.00">Strain 1 gff</text>
</g>
<!-- Strain 1\nGenbank file&#45;&gt;Strain 1 gff -->
<g id="edge54" class="edge"><title>Strain 1\nGenbank file&#45;&gt;Strain 1 gff</title>
<path fill="none" stroke="black" d="M493.391,-1452.86C511.313,-1436.79 533.561,-1416.84 550.745,-1401.44"/>
<polygon fill="black" stroke="black" points="553.141,-1403.99 558.25,-1394.71 548.468,-1398.78 553.141,-1403.99"/>
<text text-anchor="middle" x="594.5" y="-1419.4" font-family="Times Roman,serif" font-size="14.00" fill="blue">Genbank to GFF3</text>
</g>
<!-- Strain 1\nnucleotide\nFASTA -->
<g id="node48" class="node"><title>Strain 1\nnucleotide\nFASTA</title>
<ellipse fill="none" stroke="black" cx="425" cy="-1130" rx="62.2254" ry="43.8406"/>
<text text-anchor="middle" x="425" y="-1144.4" font-family="Times Roman,serif" font-size="14.00">Strain 1</text>
<text text-anchor="middle" x="425" y="-1126.4" font-family="Times Roman,serif" font-size="14.00">nucleotide</text>
<text text-anchor="middle" x="425" y="-1108.4" font-family="Times Roman,serif" font-size="14.00">FASTA</text>
</g>
<!-- 5:out_file1&#45;&gt;Strain 1\nnucleotide\nFASTA -->
<g id="edge58" class="edge"><title>5:out_file1&#45;&gt;Strain 1\nnucleotide\nFASTA</title>
<path fill="none" stroke="black" d="M423.195,-1302.34C423.479,-1275.22 424.017,-1223.85 424.432,-1184.22"/>
<polygon fill="black" stroke="black" points="427.933,-1184.2 424.538,-1174.16 420.933,-1184.13 427.933,-1184.2"/>
<text text-anchor="middle" x="480.5" y="-1270.4" font-family="Times Roman,serif" font-size="14.00" fill="blue">Extract Genomic</text>
<text text-anchor="middle" x="480.5" y="-1252.4" font-family="Times Roman,serif" font-size="14.00" fill="blue">DNA</text>
</g>
<!-- Strain 2\nGenbank file -->
<g id="node32" class="node"><title>Strain 2\nGenbank file</title>
<ellipse fill="none" stroke="black" cx="226" cy="-1481" rx="73.0388" ry="31.1127"/>
<text text-anchor="middle" x="226" y="-1486.4" font-family="Times Roman,serif" font-size="14.00">Strain 2</text>
<text text-anchor="middle" x="226" y="-1468.4" font-family="Times Roman,serif" font-size="14.00">Genbank file</text>
</g>
<!-- Strain 2\nGenbank file&#45;&gt;Strain 2 gff -->
<g id="edge68" class="edge"><title>Strain 2\nGenbank file&#45;&gt;Strain 2 gff</title>
<path fill="none" stroke="black" d="M162.347,-1465.81C145.096,-1458.49 128.348,-1447.74 118,-1432 112.985,-1424.37 111.576,-1414.77 111.779,-1405.73"/>
<polygon fill="black" stroke="black" points="115.286,-1405.8 112.639,-1395.54 108.311,-1405.21 115.286,-1405.8"/>
<text text-anchor="middle" x="179.5" y="-1419.4" font-family="Times Roman,serif" font-size="14.00" fill="blue">Genbank to GFF3</text>
</g>
<!-- 7:out_file1 -->
<g id="node34" class="node"><title>7:out_file1</title>
<ellipse fill="none" stroke="black" cx="261" cy="-1321" rx="63.1385" ry="18.3848"/>
<text text-anchor="middle" x="261" y="-1317.4" font-family="Times Roman,serif" font-size="14.00">7:out_file1</text>
</g>
<!-- Strain 2\nGenbank file&#45;&gt;7:out_file1 -->
<g id="edge30" class="edge"><title>Strain 2\nGenbank file&#45;&gt;7:out_file1</title>
<path fill="none" stroke="black" d="M236.083,-1450.05C237.85,-1444.09 239.576,-1437.88 241,-1432 247.726,-1404.24 253.281,-1372.07 256.816,-1349.53"/>
<polygon fill="black" stroke="black" points="260.282,-1350.02 258.34,-1339.6 253.363,-1348.96 260.282,-1350.02"/>
<text text-anchor="middle" x="267" y="-1419.4" font-family="Times Roman,serif" font-size="14.00" fill="blue">seqret</text>
</g>
<!-- 7:out_file1&#45;&gt;Strain 2\nnucleotide\nFASTA -->
<g id="edge44" class="edge"><title>7:out_file1&#45;&gt;Strain 2\nnucleotide\nFASTA</title>
<path fill="none" stroke="black" d="M262.876,-1302.26C264.64,-1276.01 264.688,-1227.52 246,-1192 241.314,-1183.09 234.781,-1174.89 227.56,-1167.56"/>
<polygon fill="black" stroke="black" points="229.817,-1164.88 220.153,-1160.53 224.999,-1169.95 229.817,-1164.88"/>
<text text-anchor="middle" x="321.5" y="-1270.4" font-family="Times Roman,serif" font-size="14.00" fill="blue">Extract Genomic</text>
<text text-anchor="middle" x="321.5" y="-1252.4" font-family="Times Roman,serif" font-size="14.00" fill="blue">DNA</text>
</g>
<!-- CodeML control\nfile -->
<g id="node35" class="node"><title>CodeML control\nfile</title>
<ellipse fill="none" stroke="black" cx="384" cy="-165" rx="87.1802" ry="31.1127"/>
<text text-anchor="middle" x="384" y="-170.4" font-family="Times Roman,serif" font-size="14.00">CodeML control</text>
<text text-anchor="middle" x="384" y="-152.4" font-family="Times Roman,serif" font-size="14.00">file</text>
</g>
<!-- CodeML control\nfile&#45;&gt;Positively\nselected genes -->
<g id="edge32" class="edge"><title>CodeML control\nfile&#45;&gt;Positively\nselected genes</title>
<path fill="none" stroke="black" d="M384,-133.921C384,-115.618 384,-92.2373 384,-72.3875"/>
<polygon fill="black" stroke="black" points="387.5,-72.3747 384,-62.3747 380.5,-72.3748 387.5,-72.3747"/>
<text text-anchor="middle" x="435" y="-103.4" font-family="Times Roman,serif" font-size="14.00" fill="blue">Find positive</text>
<text text-anchor="middle" x="435" y="-85.4" font-family="Times Roman,serif" font-size="14.00" fill="blue">selected genes</text>
</g>
<!-- CodeML tree\nfile -->
<g id="node39" class="node"><title>CodeML tree\nfile</title>
<ellipse fill="none" stroke="black" cx="562" cy="-165" rx="73.0388" ry="31.1127"/>
<text text-anchor="middle" x="562" y="-170.4" font-family="Times Roman,serif" font-size="14.00">CodeML tree</text>
<text text-anchor="middle" x="562" y="-152.4" font-family="Times Roman,serif" font-size="14.00">file</text>
</g>
<!-- CodeML tree\nfile&#45;&gt;Positively\nselected genes -->
<g id="edge36" class="edge"><title>CodeML tree\nfile&#45;&gt;Positively\nselected genes</title>
<path fill="none" stroke="black" d="M541.686,-134.968C528.542,-117.241 510.161,-95.3425 490,-80 478.596,-71.3212 465.407,-63.6993 452.29,-57.2123"/>
<polygon fill="black" stroke="black" points="453.776,-54.0435 443.243,-52.9036 450.766,-60.3634 453.776,-54.0435"/>
<text text-anchor="middle" x="575" y="-103.4" font-family="Times Roman,serif" font-size="14.00" fill="blue">Find positive</text>
<text text-anchor="middle" x="575" y="-85.4" font-family="Times Roman,serif" font-size="14.00" fill="blue">selected genes</text>
</g>
<!-- Protein DB -->
<g id="node42" class="node"><title>Protein DB</title>
<ellipse fill="none" stroke="black" cx="671" cy="-547" rx="65.0538" ry="18.3848"/>
<text text-anchor="middle" x="671" y="-543.4" font-family="Times Roman,serif" font-size="14.00">Protein DB</text>
</g>
<!-- Protein DB&#45;&gt;Positively\nselected genes -->
<g id="edge40" class="edge"><title>Protein DB&#45;&gt;Positively\nselected genes</title>
<path fill="none" stroke="black" d="M671,-528.372C671,-506.146 671,-467.861 671,-435 671,-435 671,-435 671,-165 671,-123.057 663.161,-105.682 630,-80 605.834,-61.2841 534.201,-48.3601 474.425,-40.5038"/>
<polygon fill="black" stroke="black" points="474.544,-36.9906 464.181,-39.191 473.655,-43.9338 474.544,-36.9906"/>
<text text-anchor="middle" x="722" y="-329.4" font-family="Times Roman,serif" font-size="14.00" fill="blue">Find positive</text>
<text text-anchor="middle" x="722" y="-311.4" font-family="Times Roman,serif" font-size="14.00" fill="blue">selected genes</text>
</g>
<!-- Strain 2\nnucleotide\nFASTA&#45;&gt;13:out_file1 -->
<g id="edge72" class="edge"><title>Strain 2\nnucleotide\nFASTA&#45;&gt;13:out_file1</title>
<path fill="none" stroke="black" d="M219.202,-1099.02C231.114,-1089.71 243.577,-1079.02 254,-1068 261.373,-1060.2 275.744,-1039.4 287.357,-1021.99"/>
<polygon fill="black" stroke="black" points="290.522,-1023.55 293.126,-1013.28 284.686,-1019.68 290.522,-1023.55"/>
<text text-anchor="middle" x="306.5" y="-1046.4" font-family="Times Roman,serif" font-size="14.00" fill="blue">transeq</text>
</g>
<!-- Strain 2\nnucleotide\nFASTA&#45;&gt;14:out_file1 -->
<g id="edge46" class="edge"><title>Strain 2\nnucleotide\nFASTA&#45;&gt;14:out_file1</title>
<path fill="none" stroke="black" d="M165.909,-1086.17C161.664,-1065.7 156.73,-1041.91 152.967,-1023.77"/>
<polygon fill="black" stroke="black" points="156.358,-1022.88 150.9,-1013.8 149.504,-1024.31 156.358,-1022.88"/>
<text text-anchor="middle" x="206" y="-1055.4" font-family="Times Roman,serif" font-size="14.00" fill="blue">Concatenate</text>
<text text-anchor="middle" x="206" y="-1037.4" font-family="Times Roman,serif" font-size="14.00" fill="blue">datasets</text>
</g>
<!-- Strain 1\nnucleotide\nFASTA&#45;&gt;14:out_file1 -->
<g id="edge48" class="edge"><title>Strain 1\nnucleotide\nFASTA&#45;&gt;14:out_file1</title>
<path fill="none" stroke="black" d="M384.447,-1096.24C374.962,-1087.5 365.234,-1077.78 357,-1068 344.768,-1053.48 349.843,-1042.46 334,-1032 293.395,-1005.18 273.686,-1023.7 226,-1014 220.155,-1012.81 214.086,-1011.5 208.026,-1010.13"/>
<polygon fill="black" stroke="black" points="208.408,-1006.63 197.878,-1007.8 206.839,-1013.45 208.408,-1006.63"/>
<text text-anchor="middle" x="401" y="-1055.4" font-family="Times Roman,serif" font-size="14.00" fill="blue">Concatenate</text>
<text text-anchor="middle" x="401" y="-1037.4" font-family="Times Roman,serif" font-size="14.00" fill="blue">datasets</text>
</g>
<!-- 12:out_file1 -->
<g id="node58" class="node"><title>12:out_file1</title>
<ellipse fill="none" stroke="black" cx="477" cy="-995" rx="70.0036" ry="18.3848"/>
<text text-anchor="middle" x="477" y="-991.4" font-family="Times Roman,serif" font-size="14.00">12:out_file1</text>
</g>
<!-- Strain 1\nnucleotide\nFASTA&#45;&gt;12:out_file1 -->
<g id="edge64" class="edge"><title>Strain 1\nnucleotide\nFASTA&#45;&gt;12:out_file1</title>
<path fill="none" stroke="black" d="M441.453,-1087.29C449.575,-1066.2 459.139,-1041.37 466.3,-1022.78"/>
<polygon fill="black" stroke="black" points="469.577,-1024.01 469.906,-1013.42 463.045,-1021.49 469.577,-1024.01"/>
<text text-anchor="middle" x="487.5" y="-1046.4" font-family="Times Roman,serif" font-size="14.00" fill="blue">transeq</text>
</g>
<!-- 19:out_file1&#45;&gt;Protein DB -->
<g id="edge62" class="edge"><title>19:out_file1&#45;&gt;Protein DB</title>
<path fill="none" stroke="black" d="M671,-712.345C671,-680.247 671,-614.349 671,-576.148"/>
<polygon fill="black" stroke="black" points="674.5,-575.705 671,-565.705 667.5,-575.705 674.5,-575.705"/>
<text text-anchor="middle" x="721" y="-681.4" font-family="Times Roman,serif" font-size="14.00" fill="blue">Index a FASTA</text>
<text text-anchor="middle" x="721" y="-663.4" font-family="Times Roman,serif" font-size="14.00" fill="blue">file (Bio.SeqIO</text>
<text text-anchor="middle" x="721" y="-645.4" font-family="Times Roman,serif" font-size="14.00" fill="blue">.index_db)</text>
</g>
<!-- Strain 1 genes -->
<g id="node55" class="node"><title>Strain 1 genes</title>
<ellipse fill="none" stroke="black" cx="634" cy="-1265" rx="82.2301" ry="18.3848"/>
<text text-anchor="middle" x="634" y="-1261.4" font-family="Times Roman,serif" font-size="14.00">Strain 1 genes</text>
</g>
<!-- Strain 1 gff&#45;&gt;Strain 1 genes -->
<g id="edge70" class="edge"><title>Strain 1 gff&#45;&gt;Strain 1 genes</title>
<path fill="none" stroke="black" d="M587.247,-1358.51C596.205,-1340.59 609.901,-1313.2 620.157,-1292.69"/>
<polygon fill="black" stroke="black" points="623.397,-1294.03 624.739,-1283.52 617.136,-1290.9 623.397,-1294.03"/>
<text text-anchor="middle" x="643" y="-1326.4" font-family="Times Roman,serif" font-size="14.00" fill="blue">Extract</text>
<text text-anchor="middle" x="643" y="-1308.4" font-family="Times Roman,serif" font-size="14.00" fill="blue">features</text>
</g>
<!-- Strain 1 genes&#45;&gt;Strain 1\nnucleotide\nFASTA -->
<g id="edge56" class="edge"><title>Strain 1 genes&#45;&gt;Strain 1\nnucleotide\nFASTA</title>
<path fill="none" stroke="black" d="M606.677,-1247.35C574.55,-1226.6 520.436,-1191.65 479.603,-1165.27"/>
<polygon fill="black" stroke="black" points="481.404,-1162.27 471.104,-1159.78 477.605,-1168.15 481.404,-1162.27"/>
<text text-anchor="middle" x="629.5" y="-1215.4" font-family="Times Roman,serif" font-size="14.00" fill="blue">Extract Genomic</text>
<text text-anchor="middle" x="629.5" y="-1197.4" font-family="Times Roman,serif" font-size="14.00" fill="blue">DNA</text>
</g>
<!-- 12:out_file1&#45;&gt;Strain 1\nprotein FASTA -->
<g id="edge60" class="edge"><title>12:out_file1&#45;&gt;Strain 1\nprotein FASTA</title>
<path fill="none" stroke="black" d="M489.027,-976.697C502.828,-955.697 525.845,-920.671 543.652,-893.573"/>
<polygon fill="black" stroke="black" points="546.665,-895.361 549.232,-885.082 540.815,-891.517 546.665,-895.361"/>
<text text-anchor="middle" x="581" y="-927.4" font-family="Times Roman,serif" font-size="14.00" fill="blue">Manipulation</text>
</g>
<!-- 24:out_file1&#45;&gt;26:outfile -->
<g id="edge66" class="edge"><title>24:out_file1&#45;&gt;26:outfile</title>
<path fill="none" stroke="black" d="M203.572,-472.209C202.926,-466.383 202.32,-459.936 202,-454 201.091,-437.136 201.091,-432.864 202,-416 202.14,-413.403 202.335,-410.708 202.564,-408.01"/>
<polygon fill="black" stroke="black" points="206.073,-408.086 203.572,-397.791 199.107,-407.399 206.073,-408.086"/>
<text text-anchor="middle" x="247" y="-431.4" font-family="Times Roman,serif" font-size="14.00" fill="blue">Manipulation</text>
</g>
</g>
</svg>
